{
  "accessors": [
    {
      "bufferView": 2,
      "componentType": 5126,
      "count": 15024,
      "max": [
        0.9999999403953552,
        0.9999998211860657,
        0.9999999403953552
      ],
      "min": [
        -0.9999999403953552,
        -1.0,
        -0.9999999403953552
      ],
      "type": "VEC3"
    },
    {
      "bufferView": 2,
      "byteOffset": 180288,
      "componentType": 5126,
      "count": 15024,
      "max": [
        0.9956775307655334,
        0.7681902647018433,
        0.9956774711608887
      ],
      "min": [
        -0.9956775307655334,
        -1.0,
        -0.9956774711608887
      ],
      "type": "VEC3"
    },
    {
      "bufferView": 1,
      "componentType": 5126,
      "count": 15024,
      "max": [
        1.0,
        1.0
      ],
      "min": [
        0.0,
        0.01000000536441803
      ],
      "type": "VEC2"
    },
    {
      "bufferView": 1,
      "byteOffset": 120192,
      "componentType": 5126,
      "count": 15024,
      "max": [
        1.313436508178711,
        1.5153844356536865
      ],
      "min": [
        -0.3134365677833557,
        -0.4846155047416687
      ],
      "type": "VEC2"
    },
    {
      "bufferView": 0,
      "componentType": 5125,
      "count": 22746,
      "type": "SCALAR"
    }
  ],
  "asset": {
    "extras": {
      "author": "eskethot (https://sketchfab.com/eskethot)",
      "license": "CC-BY-4.0 (http://creativecommons.org/licenses/by/4.0/)",
      "source": "https://sketchfab.com/3d-models/trashcan-e3247e0bc3d3431fafc97766a8bb399d",
      "title": "Trashcan"
    },
    "generator": "Sketchfab-14.38.0",
    "version": "2.0"
  },
  "bufferViews": [
    {
      "buffer": 0,
      "byteLength": 90984,
      "name": "floatBufferViews",
      "target": 34963
    },
    {
      "buffer": 0,
      "byteLength": 240384,
      "byteOffset": 90984,
      "byteStride": 8,
      "name": "floatBufferViews",
      "target": 34962
    },
    {
      "buffer": 0,
      "byteLength": 360576,
      "byteOffset": 331368,
      "byteStride": 12,
      "name": "floatBufferViews",
      "target": 34962
    }
  ],
  "buffers": [
    {
      "byteLength": 691944,
      "uri": "scene.bin"
    }
  ],
  "materials": [
    {
      "doubleSided": true,
      "name": "Material.007",
      "pbrMetallicRoughness": {
        "baseColorFactor": [
          0.169988,
          0.169988,
          0.169988,
          1.0
        ],
        "roughnessFactor": 0.260331
      }
    }
  ],
  "meshes": [
    {
      "name": "Object_0",
      "primitives": [
        {
          "attributes": {
            "NORMAL": 1,
            "POSITION": 0,
            "TEXCOORD_0": 2,
            "TEXCOORD_1": 3
          },
          "indices": 4,
          "material": 0,
          "mode": 4
        }
      ]
    }
  ],
  "nodes": [
    {
      "children": [
        1
      ],
      "matrix": [
        1.0,
        0.0,
        0.0,
        0.0,
        0.0,
        2.220446049250313e-16,
        -1.0,
        0.0,
        0.0,
        1.0,
        2.220446049250313e-16,
        0.0,
        0.0,
        0.0,
        0.0,
        1.0
      ],
      "name": "Sketchfab_model"
    },
    {
      "children": [
        2
      ],
      "name": "root"
    },
    {
      "children": [
        3
      ],
      "matrix": [
        1.0,
        0.0,
        0.0,
        0.0,
        0.0,
        2.220446049250313e-16,
        1.0,
        0.0,
        0.0,
        -1.0,
        2.220446049250313e-16,
        0.0,
        0.0,
        0.0,
        0.0,
        1.0
      ],
      "name": "GLTF_SceneRootNode"
    },
    {
      "children": [
        4
      ],
      "matrix": [
        0.2856125806477832,
        0.0,
        -0.010743033448381125,
        0.0,
        0.0,
        0.2858145236968994,
        0.0,
        0.0,
        0.010743033448381125,
        0.0,
        0.2856125806477832,
        0.0,
        -0.06152999401092529,
        0.3269447982311249,
        0.015525728464126587,
        1.0
      ],
      "name": "Cylinder.001_0"
    },
    {
      "mesh": 0,
      "name": "Object_4"
    }
  ],
  "scene": 0,
  "scenes": [
    {
      "name": "Sketchfab_Scene",
      "nodes": [
        0
      ]
    }
  ]
}
